<?xml version="1.0" encoding="utf-8"?>
<svg version="1.1" xmlns:xlink="http://www.w3.org/1999/xlink" width="18px" height="18px" xmlns="http://www.w3.org/2000/svg">
  <g transform="matrix(1 0 0 1 -104 -5 )">
    <path d="M 15.4947272727273 5.72727272727275  L 16.3636363636364 5.72727272727275  C 17.2673750451777 5.72727272727275  18 6.45989768209506  18 7.36363636363637  L 18 10.6363636363636  C 18 11.5401023179049  17.2673750451777 12.2727272727273  16.3636363636364 12.2727272727273  L 15.4947272727273 12.2727272727273  C 15.0820297544559 15.5455034452874  12.2986941528626 17.9999440110663  9 18  L 9 16.3636363636364  C 11.7112160446239 16.3636363636364  13.9090909090909 14.1657614991693  13.9090909090909 11.4545454545454  L 13.9090909090909 6.54545454545456  C 13.9090909090909 3.83423850083062  11.7112160446239 1.63636363636363  9 1.63636363636363  C 6.28878395537612 1.63636363636363  4.09090909090907 3.83423850083062  4.09090909090907 6.54545454545456  L 4.09090909090907 12.2727272727273  L 1.63636363636363 12.2727272727273  C 0.732624954822313 12.2727272727273  0 11.5401023179049  0 10.6363636363636  L 0 7.36363636363637  C 0 6.45989768209506  0.732624954822313 5.72727272727275  1.63636363636363 5.72727272727275  L 2.50527272727271 5.72727272727275  C 2.91837695904485 2.45484602032326  5.70160165251917 0.000880645415691106  9 0.000880645415691106  C 12.2983983474808 0.000880645415691106  15.0816230409552 2.45484602032326  15.4947272727273 5.72727272727275  Z M 9 13.0909090909091  C 7.77310230180365 13.0927942900379  6.57060567607476 12.7482109409199  5.53090909090906 12.0968181818182  L 6.3981818181818 10.7091818181818  C 7.17797122151256 11.1976647141763  8.0798452064314 11.4560317582835  9 11.4545454545454  C 9.9201547935686 11.4560317582835  10.8220287784874 11.1976647141763  11.6018181818182 10.7091818181818  L 12.4690909090909 12.0968181818182  C 11.4293943239252 12.7482109409199  10.2268976981964 13.0927942900379  9 13.0909090909091  Z " fill-rule="nonzero" fill="#cccccc" stroke="none" transform="matrix(1 0 0 1 104 5 )" />
  </g>
</svg>